<svg width="3006" height="320" xmlns="http://www.w3.org/2000/svg">

 <g>
  <rect fill="none" id="canvas_background" height="322" width="3008" y="-1" x="-1"/>
 </g>
 <g>
  <path stroke="null" id="svg_1" d="m0,256l38.580209,-32c38.371667,-32 115.740627,-96 192.901045,-96c76.534793,0 154.320836,64 231.481254,64c76.11771,0 152.23542,-64 229.395838,-69.3c77.577501,-5.7 154.320836,48.3 231.481254,69.3c77.160418,21 154.320836,11 231.481254,-21.3c76.743335,-31.7 154.320836,-85.7 231.481254,-80c76.11771,5.3 152.23542,69.3 229.395838,112c77.786043,42.3 154.320836,64.3 231.481254,48c77.36896,-15.7 154.320836,-69.7 231.481254,-74.7c76.743335,-5 154.320836,37 231.481254,53.3c76.326251,15.7 154.320836,5.7 229.395838,0c77.994585,-5.3 154.320836,-5.3 231.481254,-16c77.577501,-10.3 154.320836,-32.3 193.943754,-42.6l37.537501,-10.7l0,-160l-38.580209,0c-38.371667,0 -115.740627,0 -192.901045,0c-76.534793,0 -154.320836,0 -231.481254,0c-76.11771,0 -152.23542,0 -229.395838,0c-77.577501,0 -154.320836,0 -231.481254,0c-77.160418,0 -154.320836,0 -231.481254,0c-76.743335,0 -154.320836,0 -231.481254,0c-76.11771,0 -152.23542,0 -229.395838,0c-77.786043,0 -154.320836,0 -231.481254,0c-77.36896,0 -154.320836,0 -231.481254,0c-76.743335,0 -154.320836,0 -231.481254,0c-76.326251,0 -154.320836,0 -229.395838,0c-77.994585,0 -154.320836,0 -231.481254,0c-77.577501,0 -154.320836,0 -193.943754,0l-37.537501,0l0,256z" fill="#222"/>
 </g>
</svg>
