<?xml version="1.0" standalone="no"?><svg xmlns="http://www.w3.org/2000/svg" viewBox="0 0 1440 320"><path fill="#00cba9" fill-opacity="1" d="M0,64L26.7,53.3C53.3,43,107,21,160,42.7C213.3,64,267,128,320,138.7C373.3,149,427,107,480,74.7C533.3,43,587,21,640,37.3C693.3,53,747,107,800,149.3C853.3,192,907,224,960,229.3C1013.3,235,1067,213,1120,218.7C1173.3,224,1227,256,1280,266.7C1333.3,277,1387,267,1413,261.3L1440,256L1440,320L1413.3,320C1386.7,320,1333,320,1280,320C1226.7,320,1173,320,1120,320C1066.7,320,1013,320,960,320C906.7,320,853,320,800,320C746.7,320,693,320,640,320C586.7,320,533,320,480,320C426.7,320,373,320,320,320C266.7,320,213,320,160,320C106.7,320,53,320,27,320L0,320Z"></path></svg>